<svg xmlns="http://www.w3.org/2000/svg" preserveAspectRatio="none" viewBox="0 0 512 512"><defs><style>.cls-1{fill:#fff;}.cls-2{fill:aqua;}.cls-3{fill:#fcee21;}</style></defs><g id="Layer_3" data-name="Layer 3"><polygon class="cls-1" points="139.24 428.79 139.24 395.09 106.08 395.09 120.11 381.06 96.28 357.23 65.4 388.11 41.57 411.94 65.4 435.77 96.28 466.64 120.11 442.81 106.08 428.79 139.24 428.79"/><rect class="cls-2" x="232.73" y="419.72" width="33.7" height="80.82" transform="translate(709.7 210.55) rotate(90)"/><rect class="cls-3" x="419.42" y="338.09" width="30.02" height="72" transform="translate(808.51 -60.34) rotate(90)"/><rect class="cls-1" x="263.9" y="275.95" width="24.78" height="59.43" transform="translate(581.95 29.37) rotate(90)"/><polygon class="cls-1" points="236.49 137.66 236.49 171.36 269.64 171.36 255.62 185.38 279.45 209.21 310.33 178.34 334.16 154.51 310.33 130.68 279.45 99.81 255.62 123.64 269.64 137.66 236.49 137.66"/><polygon class="cls-1" points="419.04 237.42 401.31 237.42 401.31 254.87 393.93 247.49 381.39 260.03 397.63 276.27 410.17 288.81 422.71 276.27 438.95 260.03 426.42 247.49 419.04 254.87 419.04 237.42"/><polygon class="cls-1" points="217.85 73.31 217.85 55.27 200.11 55.27 207.62 47.77 194.87 35.02 178.35 51.54 165.59 64.29 178.35 77.04 194.87 93.56 207.62 80.81 200.11 73.31 217.85 73.31"/><polygon class="cls-1" points="144.4 268.46 153.41 268.46 153.41 259.6 157.15 263.35 163.52 256.98 155.27 248.72 148.9 242.35 142.53 248.72 134.28 256.98 140.65 263.35 144.4 259.6 144.4 268.46"/><rect class="cls-3" x="106.88" y="119.94" width="39.06" height="93.66" transform="translate(293.17 40.36) rotate(90)"/><rect class="cls-2" x="355.14" y="83.78" width="5.76" height="13.81" transform="translate(448.7 -267.34) rotate(90)"/><rect class="cls-1" x="435.45" y="133.8" width="19.4" height="46.53" transform="translate(602.22 -288.09) rotate(90)"/><polygon class="cls-1" points="75.47 91.8 59.36 91.8 59.36 107.64 52.66 100.94 41.27 112.33 56.03 127.08 67.42 138.47 78.8 127.08 93.56 112.33 82.17 100.94 75.47 107.64 75.47 91.8"/><rect class="cls-2" x="74" y="282.24" width="26.33" height="63.13" transform="translate(400.98 226.64) rotate(90)"/><circle class="cls-1" cx="212.69" cy="252.34" r="12.51"/><circle class="cls-1" cx="351.11" cy="340.76" r="22.71"/><circle class="cls-1" cx="416.24" cy="70.85" r="16.06"/><circle class="cls-1" cx="191.65" cy="385.36" r="28.13"/></g></svg>