<svg xmlns="http://www.w3.org/2000/svg" viewBox="0 0 1024 1024"><defs><style>.cls-1{fill:#1dc5ff;}.cls-2{fill:#fff;}</style></defs><g id="Layer_4" data-name="Layer 4"><path class="cls-1" d="M443,841.43a75.52,75.52,0,0,0-44.88-69.25C298.12,728.3,228.3,628.46,228.3,512.3s69.82-216,169.78-259.89A75.52,75.52,0,0,0,443,183.16h0c0-55-56.56-91.5-106.84-69.27C183.26,181.46,76.6,334.42,76.6,512.3S183.26,843.13,336.12,910.7C386.4,932.93,443,896.4,443,841.43Z"/><path class="cls-2" d="M581.05,183.16h0a75.51,75.51,0,0,0,44.87,69.25c100,43.88,169.78,143.72,169.78,259.89s-69.82,216-169.78,259.88a75.51,75.51,0,0,0-44.87,69.25h0c0,55,56.55,91.5,106.83,69.27C840.74,843.13,947.4,690.17,947.4,512.3S840.74,181.46,687.88,113.89C637.6,91.66,581.05,128.19,581.05,183.16Z"/><path class="cls-1" d="M481.62,12.14,262.93,46.19c-55.21,8.59-80.42,73.74-45.36,117.26L356.4,335.81c35.05,43.52,104.07,32.78,124.24-19.34l79.85-206.41C580.65,57.94,536.83,3.54,481.62,12.14Z"/><path class="cls-2" d="M548.69,1004.1l218.68-34.05c55.22-8.6,80.43-73.75,45.37-117.27L673.91,680.42c-35-43.52-104.08-32.77-124.24,19.35L469.82,906.18C449.66,958.3,493.47,1012.7,548.69,1004.1Z"/></g></svg>