<svg xmlns="http://www.w3.org/2000/svg" viewBox="0 0 1024 1024"><defs><style>.cls-1{fill:#1dc5ff;}.cls-2{fill:#fff;}</style></defs><g id="Layer_4" data-name="Layer 4"><path class="cls-1" d="M443,787.51C319.64,756.68,228.3,645.16,228.3,512.3S319.64,267.91,443,237.08V82.34C235.3,115.43,76.6,295.33,76.6,512.3S235.3,909.16,443,942.25Z"/><path class="cls-2" d="M581.05,82.34V237.08C704.36,267.91,795.7,379.43,795.7,512.3S704.36,756.68,581.05,787.51V942.25C788.7,909.16,947.4,729.27,947.4,512.3S788.7,115.43,581.05,82.34Z"/><polygon class="cls-1" points="687.7 72.08 336.3 10.49 458.67 345.6 687.7 72.08"/><polygon class="cls-2" points="336.3 946.32 687.7 1007.91 565.34 672.8 336.3 946.32"/></g></svg>