<svg xmlns="http://www.w3.org/2000/svg" viewBox="0 0 1024 1024"><defs><style>.cls-1{fill:#fff;}.cls-2{fill:#1dc5ff;}</style></defs><g id="Layer_4" data-name="Layer 4"><path class="cls-1" d="M512,138a372.35,372.35,0,1,1-145.54,29.33A371.64,371.64,0,0,1,512,138M512,0h0C229.23,0,0,229.23,0,512H0c0,282.77,229.23,512,512,512h0c282.77,0,512-229.23,512-512h0C1024,229.23,794.77,0,512,0Z"/><rect class="cls-2" x="435.75" y="225.49" width="152.5" height="579.2" rx="76.25" transform="translate(-214.26 512.9) rotate(-45)"/><rect class="cls-2" x="222.4" y="438.84" width="579.2" height="152.5" rx="76.25" transform="translate(-214.26 512.9) rotate(-45)"/></g></svg>