<svg id="Layer_1" data-name="Layer 1" preserveAspectRatio="none" xmlns="http://www.w3.org/2000/svg" viewBox="0 0 785.14 187.11"><defs><style>.cls-1{fill:#29abe2;}.cls-2{fill:#fff;}</style></defs><path class="cls-1" d="M140.06,174.75A93.58,93.58,0,0,1,12.36,47.05L38.44,73.13a58.81,58.81,0,0,0,55.12,79.2C100.74,152.33,140.06,174.75,140.06,174.75Z"/><path class="cls-1" d="M93.56,152.33H780.23a4.92,4.92,0,0,1,4.92,4.92v24.9a4.92,4.92,0,0,1-4.92,4.92H93.56a0,0,0,0,1,0,0V152.33A0,0,0,0,1,93.56,152.33Z"/><path class="cls-2" d="M152.33,93.56c0,17.5-11.88,37.44-24,48.21h43.62c7-13.12,15.19-32.31,15.19-48.21A93.55,93.55,0,0,0,20.77,34.79L45.58,59.6a58.78,58.78,0,0,1,106.75,34Z"/><rect class="cls-2" x="203.19" y="109" width="105.03" height="28.55" rx="2.09"/><rect class="cls-2" x="203.19" y="24.99" width="105.03" height="28.55" rx="2.09"/><rect class="cls-2" x="203.19" y="60.94" width="105.03" height="28.55" rx="2.09"/><rect class="cls-2" x="255.81" y="84.79" width="76.26" height="28.55" rx="2.09" transform="translate(393.01 -194.87) rotate(90)"/><rect class="cls-2" x="322.42" y="24.99" width="105.03" height="28.55" rx="2.09"/><rect class="cls-2" x="336.98" y="84.97" width="75.9" height="28.55" rx="2.09" transform="translate(474.18 -275.68) rotate(90)"/><rect class="cls-2" x="441.75" y="60.94" width="105.03" height="28.55" rx="2.09"/><rect class="cls-2" x="441.65" y="24.81" width="105.03" height="28.55" rx="2.09"/><rect class="cls-2" x="417.72" y="84.97" width="76.61" height="28.55" rx="2.09" transform="translate(555.28 -356.78) rotate(90)"/><rect class="cls-2" x="494.36" y="84.7" width="76.08" height="28.55" rx="2.09" transform="translate(631.38 -433.42) rotate(90)"/><rect class="cls-2" x="560.88" y="25.16" width="105.03" height="28.55" rx="2.09"/><rect class="cls-2" x="575.27" y="84.97" width="76.26" height="28.55" rx="2.09" transform="translate(712.64 -514.15) rotate(90)"/><rect class="cls-2" x="680.11" y="108.82" width="105.03" height="28.55" rx="2.09"/><rect class="cls-2" x="680.11" y="24.81" width="105.03" height="28.55" rx="2.09"/><rect class="cls-2" x="680.11" y="60.76" width="105.03" height="28.55" rx="2.09"/><rect class="cls-2" x="732.74" y="84.62" width="76.26" height="28.55" rx="2.09" transform="translate(869.76 -671.97) rotate(90)"/></svg>