<svg xmlns="http://www.w3.org/2000/svg" viewBox="0 0 1024 1024"><defs><style>.cls-1{fill:#fff;}.cls-2{fill:#1dc5ff;}</style></defs><g id="Layer_4" data-name="Layer 4"><path class="cls-1" d="M407,238.93a167,167,0,0,1,118.86,49.24L735.83,498.11A168.09,168.09,0,1,1,498.11,735.83L288.17,525.89A168.1,168.1,0,0,1,407,238.93m0-150A317.11,317.11,0,0,0,182.1,182.1h0C57.88,306.33,57.88,507.73,182.1,632L392,841.9a318.1,318.1,0,0,0,449.86,0h0c124.22-124.23,124.22-325.63,0-449.86L632,182.1A317.11,317.11,0,0,0,407,88.93Z"/><rect class="cls-2" x="736.07" y="568.06" width="169.13" height="505.15" rx="84.57" transform="translate(-339.92 820.63) rotate(-45)"/><rect class="cls-2" x="123.35" y="-44.66" width="169.13" height="505.15" rx="84.57" transform="translate(-86.12 207.91) rotate(-45)"/></g></svg>