<svg xmlns="http://www.w3.org/2000/svg" viewBox="0 0 1024 1024"><defs><style>.cls-1{fill:#fff;}</style></defs><g id="Layer_4" data-name="Layer 4"><path class="cls-1" d="M1008.31,887.54,767.2,646.43S747,683.16,707.09,718.79C688.62,735.28,623,771.06,623,771.06L871.85,1024Z"/><path class="cls-1" d="M231.1,379.21C276,269.94,383.47,193,508.93,193c165.82,0,300.25,134.43,300.25,300.26,0,125.46-88.09,240.61-186.22,277.82L766.1,914.21c141.59-86.69,236.07-242.79,236.07-421C1002.17,220.83,781.34,0,508.93,0,330.75,0,174.64,94.48,88,236.07Z"/><path class="cls-1" d="M528,792.88c-6.32.39-12.69.62-19.1.62-165.83,0-300.26-134.43-300.26-300.26,0-6.42.22-12.78.62-19.1l-160-160A491.93,491.93,0,0,0,15.69,493.24c0,272.41,220.83,493.24,493.24,493.24a491.93,491.93,0,0,0,179.15-33.55Z"/></g></svg>