<svg xmlns="http://www.w3.org/2000/svg" viewBox="0 0 1024 1024"><defs><style>.cls-1{fill:#fff;}.cls-2{fill:#1dc5ff;}</style></defs><g id="Layer_4" data-name="Layer 4"><path class="cls-1" d="M929.25,772.46a496,496,0,0,0,81.22-274.69c-1-277.56-225.6-499.12-503.14-496.57C340.34,2.73,193,86.38,103.65,213.71a37,37,0,0,0,4.22,47.35l106,106a17,17,0,0,0,27.19-4.29c50-98.83,152.54-166.6,270.89-166.6,167.59,0,303.45,135.86,303.45,303.45,0,93.19-48.1,180.75-113,235.55-13.57,9.64-34.05,21.86-50.22,31.16A22.1,22.1,0,0,0,647.53,801l211,214.39a28.69,28.69,0,0,0,40.75.16l103.24-103.23a20.1,20.1,0,0,0,0-28.43L933.75,815.2A34.08,34.08,0,0,1,929.25,772.46Z"/><path class="cls-2" d="M545.87,817.05a47.58,47.58,0,0,0-33.68-13.95H512c-167.61.06-303.5-135.83-303.45-303.44v-.2a47.59,47.59,0,0,0-13.94-33.68L63.68,334.86a14.64,14.64,0,0,0-24.23,5.71A497.92,497.92,0,0,0,13.52,499.64c0,275,223.48,498.5,498.49,498.5A498,498,0,0,0,664.4,974.4,18.82,18.82,0,0,0,672,943.18Z"/></g></svg>